<svg height="259.328868" viewBox="0 0 128.24999 86.249998" width="385.610752" xmlns="http://www.w3.org/2000/svg"><g transform="translate(-438.85781 -28.35)"><path d="m453.41016 68.296875 14.82421-6.140625 1.14844 17.507812zm0 0" fill="#3d9e47"/><path d="m485.375 67.488281 13.11719 4.992188-10.89844 13.097656zm0 0" fill="#237875"/><path d="m469.41406 79.636719-13.79297 6.996093-2.21093-18.335937zm0 0" fill="#008a82"/><path d="m499.42187 82.535156-11.82812 3.042969-15.64063 6.820313 12.88282 1.132812zm0 0" fill="#055770"/><path d="m469.41406 79.636719 18.17969 5.941406-2.21875-18.089844zm0 0" fill="#008a85"/><path d="m485.375 67.488281-17.14063-5.332031 11.69532-13.304688zm0 0" fill="#3d9e47"/><path d="m459.1875 49.472656 9.04687 12.683594 11.69532-13.304688-20.73438.621094zm0 0" fill="#73ab38"/><path d="m446.76562 55.839844 6.64454 12.457031-6.90235 5.078125zm0 0" fill="#61a12e"/><path d="m446.76562 55.839844 6.64454 12.457031 5.77734-18.828125zm0 0" fill="#75b828"/><path d="m456.01172 42.121094 3.17578 7.351562-12.42188 6.367188zm0 0" fill="#99c554"/><path d="m468.23437 62.15625-9.04687-12.683594-5.77734 18.824219zm0 0" fill="#389c35"/><path d="m446.50781 73.371094 6.90235-5.074219 2.21484 18.335937zm0 0" fill="#007d2e"/><path d="m459.1875 49.472656 10.4375-13.472656 10.30469 12.851562zm0 0" fill="#91bf3f"/><path d="m459.1875 49.472656 10.4375-13.472656-13.61719 6.132812zm0 0" fill="#75b828"/><path d="m469.38672 79.664062-1.15235-17.507812 17.14063 5.332031zm0 0" fill="#009438"/><path d="m487.59375 85.578125-18.17969-5.941406 2.53906 12.761719zm0 0" fill="#3d758c"/><path d="m455.625 86.636719 16.32812 5.761719 12.88282 1.132812-18.86328.101562zm0 0" fill="#3d758c"/><path d="m485.375 67.488281 13.11719 4.992188-1.25391-17.339844zm0 0" fill="#33918c"/><path d="m497.23828 55.140625 1.40234-8.183594 5.87891 17.289063zm0 0" fill="#005e54"/><path d="m487.98047 40.9375-4.54688-4.617188-13.80859-.320312zm0 0" fill="#4fa34f"/><path d="m479.92969 48.851562-10.30469-12.851562 18.35547 4.9375zm0 0" fill="#75b828"/><path d="m479.92969 48.851562 5.44531 18.636719 11.86328-12.347656zm0 0" fill="#009438"/><path d="m479.92969 48.851562 8.05078-7.914062 9.25781 14.203125zm0 0" fill="#61a12e"/><path d="m483.43359 36.320312 4.54688 4.617188 9.25781 14.203125 1.39844-8.1875zm0 0" fill="#008c35"/><path d="m455.625 86.636719 13.78906-7 2.53906 12.761719zm0 0" fill="#2e6e85"/><path d="m487.60937 85.574219 11.8125-3.039063-.92968-10.054687zm0 0" fill="#266b85"/><path d="m498.49219 72.480469 6.02734-8.242188-7.28125-9.097656zm0 0" fill="#007a35"/><path d="m504.51953 64.246094-5.09766 18.289062-.92968-10.054687zm0 0" fill="#2b637d"/><g fill="#3a3a3a"><path d="m517.88281 75.992188v3.789062c-.92578.605469-1.93359.949219-3.23828.949219-2.47266 0-4.60547-1.800781-4.60547-4.480469 0-2.699219 2.16797-4.488281 4.60547-4.488281 1.28125 0 2.19531.355469 3.08203.898437l-.67578 1.1875c-.69922-.453125-1.52734-.722656-2.33203-.722656-1.98047 0-3.09375 1.398438-3.09375 3.125 0 1.851562 1.36328 3.164062 3.08203 3.164062.74609 0 1.24219-.128906 1.75391-.414062v-1.707031h-2.02735v-1.300781zm0 0"/><path d="m524.22656 80.589844-1.89453-3.128906c-.15625.01172-.29687.01172-.46094.01172-.28515 0-.58203-.01172-.86718-.02344v3.140625h-1.48047v-8.601563c.6875-.08594 1.41015-.144531 2.28515-.144531 2.46485 0 3.55469 1.199219 3.55469 2.738281 0 1.125-.61328 2.039063-1.69141 2.511719l2.27344 3.496094zm-2.22656-7.417969c-.35547 0-.69922.01172-.99609.07031v2.960937c.27343.03906.57031.04687.85156.04687 1.29297 0 1.94531-.601562 1.94531-1.597656 0-.875-.66406-1.480469-1.80078-1.480469"/><path d="m527.00781 80.589844v-8.6875h5.29688v1.351562h-3.81641v2.277344h3.44922v1.300781h-3.44922v2.40625h3.81641v1.351563zm0 0"/><path d="m534.04297 80.589844v-8.6875h5.29297v1.351562h-3.8125v2.277344h3.44531v1.300781h-3.44531v2.40625h3.8125v1.351563zm0 0"/><path d="m547.99609 80.753906-5.4414-5.734375v5.570313h-1.48047v-8.804688l.23828-.04687 5.36719 5.652344v-5.488281h1.48047v8.816406zm0 0"/><path d="m514.72656 93.773438c-2.75 0-4.67969-1.894532-4.67969-4.480469 0-2.570313 1.95313-4.488281 4.67969-4.488281 1.07813 0 2.0625.34375 2.79688.792968l-.51172 1.253906c-.6875-.386718-1.53906-.660156-2.3086-.660156-1.91015 0-3.07031 1.265625-3.07031 3.101563 0 1.828125 1.19531 3.09375 3.10547 3.09375.76953 0 1.67188-.273438 2.37109-.6875l.44922 1.257812c-.72265.460938-1.7539.816407-2.83203.816407"/><path d="m518.85547 93.632812v-8.6875h1.48047v7.335938h3.8164v1.351562zm0 0"/><path d="m525.36719 84.945312h1.48437v8.6875h-1.48437zm0 0"/><path d="m536.03125 93.632812-.12109-5.203124-2.73438 4.148437h-.17969l-2.75781-4.160156-.0937 5.214843h-1.46094l.36719-8.792968.22656-.02344 3.85157 5.757813 3.7539-5.757813.23828.02344.36719 8.792968zm0 0"/><path d="m544.92187 93.632812-.83984-1.992187h-3.4375l-.83984 1.992187h-1.52735l4.00391-8.804687h.21484l3.99219 8.804687zm-2.55859-6.066406-1.23047 2.902344h2.46485zm0 0"/><path d="m550.27344 86.296875v7.335937h-1.48047v-7.335937h-2.76172v-1.351563h6.99219v1.351563zm0 0"/><path d="m554.26172 93.632812v-8.6875h5.29687v1.351563h-3.8125v2.273437h3.44532v1.304688h-3.44532v2.40625h3.8125v1.351562zm0 0"/><path d="m511.80078 99.367188v2.535152h3.35547v1.3125h-3.35547v3.48438h-1.48047v-8.683595h5.29688v1.351563zm0 0"/><path d="m520.24609 106.84375c-2.16797 0-3.44922-1.22266-3.44922-3.47266v-5.355465h1.48047v5.250005c0 1.49218.73828 2.22656 1.99219 2.22656 1.24609 0 1.98828-.7461 1.98828-2.22656v-5.250005h1.48438v5.355465c0 2.21485-1.36328 3.47266-3.4961 3.47266"/><path d="m532.44531 106.86719-5.4375-5.73828v5.57031h-1.48047v-8.800782l.23438-.05078 5.36719 5.652342v-5.484373h1.48046v8.812503zm0 0"/><path d="m537 106.76953c-.94531 0-1.62109-.0586-2.5-.14062v-8.531254c.84375-.09375 1.55469-.140625 2.41797-.140625 3.4375 0 5.1289 1.976563 5.1289 4.324219 0 2.44141-1.60937 4.48828-5.04687 4.48828m.0977-7.511718c-.42969 0-.8086.02344-1.11719.07031v6.058598c.36719.0586.67578.0703 1.24609.0703 2.22656 0 3.23438-1.33984 3.23438-3.17578 0-1.80078-1.16016-3.023441-3.36328-3.023441"/></g></g></svg>